<svg xmlns="http://www.w3.org/2000/svg" width="24" height="24" viewBox="0 0 24 24" fill="white" stroke="currentColor" stroke-width="2" stroke-linecap="round" stroke-linejoin="round" class="lucide lucide-stethoscope" style="border-radius: 50%;">
  <rect width="24" height="24" fill="white" rx="12" ry="12"/>
  <path d="M4.8 2.3A.3.3 0 1 0 5 2H4a2 2 0 0 0-2 2v5a6 6 0 0 0 6 6v0a6 6 0 0 0 6-6V4a2 2 0 0 0-2-2h-1a.2.2 0 1 0 .3.3" stroke="#1e3a8a"/>
  <path d="M8 15v1a6 6 0 0 0 6 6v0a6 6 0 0 0 6-6v-4" stroke="#1e3a8a"/>
  <circle cx="20" cy="10" r="2" stroke="#1e3a8a"/>
</svg>